<svg width="44px" height="19px" viewBox="0 0 44 19" version="1.1" xmlns="http://www.w3.org/2000/svg"
     xmlns:xlink="http://www.w3.org/1999/xlink">
    <g id="Page-1" class="svg-style" stroke-width="1" fill-rule="evenodd">
        <path class="svg-style"
              d="M0,0 L4,0 L4,19 L0,19 L0,0 Z M32,0 L36,0 L36,19 L32,19 L32,0 Z M8,7 C10.209139,7 12,8.790861 12,11 L12,19 L8,19 L8,7 Z M40,7 C42.209139,7 44,8.790861 44,11 L44,15 C44,17.209139 42.209139,19 40,19 L40,7 Z M20,19 C17.790861,19 16,17.209139 16,15 L16,7 L20,7 L20,19 Z M24,19 L24,7 L28,7 L28,15 C28,17.209139 26.209139,19 24,19 Z"
              id="Combined-Shape"></path>
    </g>
</svg>
